<?xml version="1.0"?>
<VTKFile type="UnstructuredGrid" version="0.1">
<UnstructuredGrid>
<Piece NumberOfPoints="17" NumberOfCells="16">
<Points>
<DataArray type="Float64" NumberOfComponents="3" format="ascii">
1.00000000e+00 0.00000000e+00 0.0
1.00000000e+00 6.25000000e-02 0.0
1.00000000e+00 1.25000000e-01 0.0
1.00000000e+00 1.87500000e-01 0.0
1.00000000e+00 2.50000000e-01 0.0
1.00000000e+00 3.12500000e-01 0.0
1.00000000e+00 3.75000000e-01 0.0
1.00000000e+00 4.37500000e-01 0.0
1.00000000e+00 5.00000000e-01 0.0
1.00000000e+00 5.62500000e-01 0.0
1.00000000e+00 6.25000000e-01 0.0
1.00000000e+00 6.87500000e-01 0.0
1.00000000e+00 7.50000000e-01 0.0
1.00000000e+00 8.12500000e-01 0.0
1.00000000e+00 8.75000000e-01 0.0
1.00000000e+00 9.37500000e-01 0.0
1.00000000e+00 1.00000000e+00 0.0
</DataArray>
</Points>
<Cells>
<DataArray type="Int32" Name="connectivity" format="ascii">
0 1 
1 2 
2 3 
3 4 
4 5 
5 6 
6 7 
7 8 
8 9 
9 10 
10 11 
11 12 
12 13 
13 14 
14 15 
15 16 
</DataArray>
<DataArray type="Int32" Name="offsets" format="ascii">
2 4 6 8 10 12 14 16 18 20 22 24 26 28 30 32 
</DataArray>
<DataArray type="UInt8" Name="types" format="ascii">
3 3 3 3 3 3 3 3 3 3 3 3 3 3 3 3 
</DataArray>
</Cells>
<CellData>
<DataArray type="Float64" Name="zone" format="ascii">
2.00000000e+00
1.00000000e+00
1.00000000e+00
1.00000000e+00
1.00000000e+00
1.00000000e+00
1.00000000e+00
1.00000000e+00
2.00000000e+00
2.00000000e+00
2.00000000e+00
2.00000000e+00
2.00000000e+00
2.00000000e+00
2.00000000e+00
1.00000000e+00
</DataArray>
<DataArray type="Float64" Name="friction_bound" format="ascii">
1.99541599e+00
4.69459556e-03
5.37753533e-03
5.03108999e-03
4.91954582e-03
4.85805415e-03
4.81975678e-03
4.90300981e-03
5.13884858e-01
5.26037424e-01
5.29786534e-01
5.37503915e-01
5.52262335e-01
5.82738395e-01
5.72083084e-01
1.48763713e-02
</DataArray>
<DataArray type="Float64" Name="slip_ratio" format="ascii">
3.54323723e-02
1.09866357e+01
9.30248927e+00
9.96081285e+00
1.01760212e+01
1.03007462e+01
1.03749484e+01
1.02366388e+01
1.25050971e-01
1.22096908e-01
1.21407369e-01
1.19964238e-01
1.17307736e-01
1.12098584e-01
1.15969037e-01
2.78036938e+00
</DataArray>
<DataArray type="Float64" Name="normal_stress" format="ascii">
-9.97712290e+00
-2.34755017e-02
-2.68876223e-02
-2.51556136e-02
-2.45978619e-02
-2.42903874e-02
-2.40989440e-02
-2.45144403e-02
-2.56944120e+00
-2.63020363e+00
-2.64894935e+00
-2.68753650e+00
-2.76132908e+00
-2.91371075e+00
-2.86043292e+00
-7.43860369e-02
</DataArray>
<DataArray type="Float64" Name="contact_pressure" format="ascii">
-9.97707994e+00
-2.34729778e-02
-2.68876766e-02
-2.51554499e-02
-2.45977291e-02
-2.42902708e-02
-2.40987839e-02
-2.45150490e-02
-2.56942429e+00
-2.63018712e+00
-2.64893267e+00
-2.68751957e+00
-2.76131168e+00
-2.91369198e+00
-2.86041542e+00
-7.43818567e-02
</DataArray>
<DataArray type="Float64" Name="friction_traction" format="ascii">
7.07023221e-02
4.69459556e-03
5.37753533e-03
5.03108999e-03
4.91954582e-03
4.85805415e-03
4.81975678e-03
4.90300981e-03
6.42618003e-02
6.42275428e-02
6.43199891e-02
6.44812478e-02
6.47846441e-02
6.53241492e-02
6.63439241e-02
1.48763713e-02
</DataArray>
<DataArray type="Float64" Name="normal_displacement" format="ascii">
-2.68483017e-08
-1.57745756e-09
3.39750390e-11
-1.02281469e-10
-8.30220302e-11
-7.28791128e-11
-1.00083396e-10
3.80442168e-10
-1.05687907e-08
-1.03200570e-08
-1.04250872e-08
-1.05812093e-08
-1.08756628e-08
-1.17334840e-08
-1.09338021e-08
-2.61267296e-09
</DataArray>
<DataArray type="Float64" Name="tangential_displacement" format="ascii">
0.00000000e+00
0.00000000e+00
0.00000000e+00
0.00000000e+00
0.00000000e+00
0.00000000e+00
0.00000000e+00
0.00000000e+00
0.00000000e+00
0.00000000e+00
0.00000000e+00
0.00000000e+00
0.00000000e+00
0.00000000e+00
0.00000000e+00
0.00000000e+00
</DataArray>
</CellData>
</Piece>
</UnstructuredGrid>
</VTKFile>
