<?xml version="1.0"?>
<VTKFile type="UnstructuredGrid" version="0.1">
<UnstructuredGrid>
<Piece NumberOfPoints="545" NumberOfCells="280">
<Points>
<DataArray type="Float64" NumberOfComponents="3" format="ascii">
0.00000000e+00 0.00000000e+00 0.0
0.00000000e+00 6.25000000e-02 0.0
0.00000000e+00 1.25000000e-01 0.0
0.00000000e+00 1.87500000e-01 0.0
0.00000000e+00 2.50000000e-01 0.0
0.00000000e+00 3.12500000e-01 0.0
0.00000000e+00 3.75000000e-01 0.0
0.00000000e+00 4.37500000e-01 0.0
0.00000000e+00 5.00000000e-01 0.0
0.00000000e+00 5.62500000e-01 0.0
0.00000000e+00 6.25000000e-01 0.0
0.00000000e+00 6.87500000e-01 0.0
0.00000000e+00 7.50000000e-01 0.0
0.00000000e+00 8.12500000e-01 0.0
0.00000000e+00 8.75000000e-01 0.0
0.00000000e+00 9.37500000e-01 0.0
0.00000000e+00 1.00000000e+00 0.0
3.12500000e-02 3.12500000e-02 0.0
3.12500000e-02 9.37500000e-02 0.0
3.12500000e-02 1.56250000e-01 0.0
3.12500000e-02 2.18750000e-01 0.0
3.12500000e-02 2.81250000e-01 0.0
3.12500000e-02 3.43750000e-01 0.0
3.12500000e-02 4.06250000e-01 0.0
3.12500000e-02 4.68750000e-01 0.0
3.12500000e-02 5.31250000e-01 0.0
3.12500000e-02 5.93750000e-01 0.0
3.12500000e-02 6.56250000e-01 0.0
3.12500000e-02 7.18750000e-01 0.0
3.12500000e-02 7.81250000e-01 0.0
3.12500000e-02 8.43750000e-01 0.0
3.12500000e-02 9.06250000e-01 0.0
3.12500000e-02 9.68750000e-01 0.0
6.25000000e-02 3.12500000e-02 0.0
6.25000000e-02 9.37500000e-02 0.0
6.25000000e-02 1.56250000e-01 0.0
6.25000000e-02 2.18750000e-01 0.0
6.25000000e-02 2.81250000e-01 0.0
6.25000000e-02 3.43750000e-01 0.0
6.25000000e-02 4.06250000e-01 0.0
6.25000000e-02 4.68750000e-01 0.0
6.25000000e-02 5.31250000e-01 0.0
6.25000000e-02 5.93750000e-01 0.0
6.25000000e-02 6.56250000e-01 0.0
6.25000000e-02 7.18750000e-01 0.0
6.25000000e-02 7.81250000e-01 0.0
6.25000000e-02 8.43750000e-01 0.0
6.25000000e-02 9.06250000e-01 0.0
6.25000000e-02 9.68750000e-01 0.0
9.37500000e-02 0.00000000e+00 0.0
9.37500000e-02 6.25000000e-02 0.0
9.37500000e-02 1.25000000e-01 0.0
9.37500000e-02 1.87500000e-01 0.0
9.37500000e-02 2.50000000e-01 0.0
9.37500000e-02 3.12500000e-01 0.0
9.37500000e-02 3.75000000e-01 0.0
9.37500000e-02 4.37500000e-01 0.0
9.37500000e-02 5.00000000e-01 0.0
9.37500000e-02 5.62500000e-01 0.0
9.37500000e-02 6.25000000e-01 0.0
9.37500000e-02 6.87500000e-01 0.0
9.37500000e-02 7.50000000e-01 0.0
9.37500000e-02 8.12500000e-01 0.0
9.37500000e-02 8.75000000e-01 0.0
9.37500000e-02 9.37500000e-01 0.0
9.37500000e-02 1.00000000e+00 0.0
1.25000000e-01 0.00000000e+00 0.0
1.25000000e-01 6.25000000e-02 0.0
1.25000000e-01 1.25000000e-01 0.0
1.25000000e-01 1.87500000e-01 0.0
1.25000000e-01 2.50000000e-01 0.0
1.25000000e-01 3.12500000e-01 0.0
1.25000000e-01 3.75000000e-01 0.0
1.25000000e-01 4.37500000e-01 0.0
1.25000000e-01 5.00000000e-01 0.0
1.25000000e-01 5.62500000e-01 0.0
1.25000000e-01 6.25000000e-01 0.0
1.25000000e-01 6.87500000e-01 0.0
1.25000000e-01 7.50000000e-01 0.0
1.25000000e-01 8.12500000e-01 0.0
1.25000000e-01 8.75000000e-01 0.0
1.25000000e-01 9.37500000e-01 0.0
1.25000000e-01 1.00000000e+00 0.0
1.56250000e-01 3.12500000e-02 0.0
1.56250000e-01 9.37500000e-02 0.0
1.56250000e-01 1.56250000e-01 0.0
1.56250000e-01 2.18750000e-01 0.0
1.56250000e-01 2.81250000e-01 0.0
1.56250000e-01 3.43750000e-01 0.0
1.56250000e-01 4.06250000e-01 0.0
1.56250000e-01 4.68750000e-01 0.0
1.56250000e-01 5.31250000e-01 0.0
1.56250000e-01 5.93750000e-01 0.0
1.56250000e-01 6.56250000e-01 0.0
1.56250000e-01 7.18750000e-01 0.0
1.56250000e-01 7.81250000e-01 0.0
1.56250000e-01 8.43750000e-01 0.0
1.56250000e-01 9.06250000e-01 0.0
1.56250000e-01 9.68750000e-01 0.0
1.87500000e-01 3.12500000e-02 0.0
1.87500000e-01 9.37500000e-02 0.0
1.87500000e-01 1.56250000e-01 0.0
1.87500000e-01 2.18750000e-01 0.0
1.87500000e-01 2.81250000e-01 0.0
1.87500000e-01 3.43750000e-01 0.0
1.87500000e-01 4.06250000e-01 0.0
1.87500000e-01 4.68750000e-01 0.0
1.87500000e-01 5.31250000e-01 0.0
1.87500000e-01 5.93750000e-01 0.0
1.87500000e-01 6.56250000e-01 0.0
1.87500000e-01 7.18750000e-01 0.0
1.87500000e-01 7.81250000e-01 0.0
1.87500000e-01 8.43750000e-01 0.0
1.87500000e-01 9.06250000e-01 0.0
1.87500000e-01 9.68750000e-01 0.0
2.18750000e-01 0.00000000e+00 0.0
2.18750000e-01 6.25000000e-02 0.0
2.18750000e-01 1.25000000e-01 0.0
2.18750000e-01 1.87500000e-01 0.0
2.18750000e-01 2.50000000e-01 0.0
2.18750000e-01 3.12500000e-01 0.0
2.18750000e-01 3.75000000e-01 0.0
2.18750000e-01 4.37500000e-01 0.0
2.18750000e-01 5.00000000e-01 0.0
2.18750000e-01 5.62500000e-01 0.0
2.18750000e-01 6.25000000e-01 0.0
2.18750000e-01 6.87500000e-01 0.0
2.18750000e-01 7.50000000e-01 0.0
2.18750000e-01 8.12500000e-01 0.0
2.18750000e-01 8.75000000e-01 0.0
2.18750000e-01 9.37500000e-01 0.0
2.18750000e-01 1.00000000e+00 0.0
2.50000000e-01 0.00000000e+00 0.0
2.50000000e-01 6.25000000e-02 0.0
2.50000000e-01 1.25000000e-01 0.0
2.50000000e-01 1.87500000e-01 0.0
2.50000000e-01 2.50000000e-01 0.0
2.50000000e-01 3.12500000e-01 0.0
2.50000000e-01 3.75000000e-01 0.0
2.50000000e-01 4.37500000e-01 0.0
2.50000000e-01 5.00000000e-01 0.0
2.50000000e-01 5.62500000e-01 0.0
2.50000000e-01 6.25000000e-01 0.0
2.50000000e-01 6.87500000e-01 0.0
2.50000000e-01 7.50000000e-01 0.0
2.50000000e-01 8.12500000e-01 0.0
2.50000000e-01 8.75000000e-01 0.0
2.50000000e-01 9.37500000e-01 0.0
2.50000000e-01 1.00000000e+00 0.0
2.81250000e-01 3.12500000e-02 0.0
2.81250000e-01 9.37500000e-02 0.0
2.81250000e-01 1.56250000e-01 0.0
2.81250000e-01 2.18750000e-01 0.0
2.81250000e-01 2.81250000e-01 0.0
2.81250000e-01 3.43750000e-01 0.0
2.81250000e-01 4.06250000e-01 0.0
2.81250000e-01 4.68750000e-01 0.0
2.81250000e-01 5.31250000e-01 0.0
2.81250000e-01 5.93750000e-01 0.0
2.81250000e-01 6.56250000e-01 0.0
2.81250000e-01 7.18750000e-01 0.0
2.81250000e-01 7.81250000e-01 0.0
2.81250000e-01 8.43750000e-01 0.0
2.81250000e-01 9.06250000e-01 0.0
2.81250000e-01 9.68750000e-01 0.0
3.12500000e-01 3.12500000e-02 0.0
3.12500000e-01 9.37500000e-02 0.0
3.12500000e-01 1.56250000e-01 0.0
3.12500000e-01 2.18750000e-01 0.0
3.12500000e-01 2.81250000e-01 0.0
3.12500000e-01 3.43750000e-01 0.0
3.12500000e-01 4.06250000e-01 0.0
3.12500000e-01 4.68750000e-01 0.0
3.12500000e-01 5.31250000e-01 0.0
3.12500000e-01 5.93750000e-01 0.0
3.12500000e-01 6.56250000e-01 0.0
3.12500000e-01 7.18750000e-01 0.0
3.12500000e-01 7.81250000e-01 0.0
3.12500000e-01 8.43750000e-01 0.0
3.12500000e-01 9.06250000e-01 0.0
3.12500000e-01 9.68750000e-01 0.0
3.43750000e-01 0.00000000e+00 0.0
3.43750000e-01 6.25000000e-02 0.0
3.43750000e-01 1.25000000e-01 0.0
3.43750000e-01 1.87500000e-01 0.0
3.43750000e-01 2.50000000e-01 0.0
3.43750000e-01 3.12500000e-01 0.0
3.43750000e-01 3.75000000e-01 0.0
3.43750000e-01 4.37500000e-01 0.0
3.43750000e-01 5.00000000e-01 0.0
3.43750000e-01 5.62500000e-01 0.0
3.43750000e-01 6.25000000e-01 0.0
3.43750000e-01 6.87500000e-01 0.0
3.43750000e-01 7.50000000e-01 0.0
3.43750000e-01 8.12500000e-01 0.0
3.43750000e-01 8.75000000e-01 0.0
3.43750000e-01 9.37500000e-01 0.0
3.43750000e-01 1.00000000e+00 0.0
3.75000000e-01 0.00000000e+00 0.0
3.75000000e-01 6.25000000e-02 0.0
3.75000000e-01 1.25000000e-01 0.0
3.75000000e-01 1.87500000e-01 0.0
3.75000000e-01 2.50000000e-01 0.0
3.75000000e-01 3.12500000e-01 0.0
3.75000000e-01 3.75000000e-01 0.0
3.75000000e-01 4.37500000e-01 0.0
3.75000000e-01 5.00000000e-01 0.0
3.75000000e-01 5.62500000e-01 0.0
3.75000000e-01 6.25000000e-01 0.0
3.75000000e-01 6.87500000e-01 0.0
3.75000000e-01 7.50000000e-01 0.0
3.75000000e-01 8.12500000e-01 0.0
3.75000000e-01 8.75000000e-01 0.0
3.75000000e-01 9.37500000e-01 0.0
3.75000000e-01 1.00000000e+00 0.0
4.06250000e-01 3.12500000e-02 0.0
4.06250000e-01 9.37500000e-02 0.0
4.06250000e-01 1.56250000e-01 0.0
4.06250000e-01 2.18750000e-01 0.0
4.06250000e-01 2.81250000e-01 0.0
4.06250000e-01 3.43750000e-01 0.0
4.06250000e-01 4.06250000e-01 0.0
4.06250000e-01 4.68750000e-01 0.0
4.06250000e-01 5.31250000e-01 0.0
4.06250000e-01 5.93750000e-01 0.0
4.06250000e-01 6.56250000e-01 0.0
4.06250000e-01 7.18750000e-01 0.0
4.06250000e-01 7.81250000e-01 0.0
4.06250000e-01 8.43750000e-01 0.0
4.06250000e-01 9.06250000e-01 0.0
4.06250000e-01 9.68750000e-01 0.0
4.37500000e-01 3.12500000e-02 0.0
4.37500000e-01 9.37500000e-02 0.0
4.37500000e-01 1.56250000e-01 0.0
4.37500000e-01 2.18750000e-01 0.0
4.37500000e-01 2.81250000e-01 0.0
4.37500000e-01 3.43750000e-01 0.0
4.37500000e-01 4.06250000e-01 0.0
4.37500000e-01 4.68750000e-01 0.0
4.37500000e-01 5.31250000e-01 0.0
4.37500000e-01 5.93750000e-01 0.0
4.37500000e-01 6.56250000e-01 0.0
4.37500000e-01 7.18750000e-01 0.0
4.37500000e-01 7.81250000e-01 0.0
4.37500000e-01 8.43750000e-01 0.0
4.37500000e-01 9.06250000e-01 0.0
4.37500000e-01 9.68750000e-01 0.0
4.68750000e-01 0.00000000e+00 0.0
4.68750000e-01 6.25000000e-02 0.0
4.68750000e-01 1.25000000e-01 0.0
4.68750000e-01 1.87500000e-01 0.0
4.68750000e-01 2.50000000e-01 0.0
4.68750000e-01 3.12500000e-01 0.0
4.68750000e-01 3.75000000e-01 0.0
4.68750000e-01 4.37500000e-01 0.0
4.68750000e-01 5.00000000e-01 0.0
4.68750000e-01 5.62500000e-01 0.0
4.68750000e-01 6.25000000e-01 0.0
4.68750000e-01 6.87500000e-01 0.0
4.68750000e-01 7.50000000e-01 0.0
4.68750000e-01 8.12500000e-01 0.0
4.68750000e-01 8.75000000e-01 0.0
4.68750000e-01 9.37500000e-01 0.0
4.68750000e-01 1.00000000e+00 0.0
5.00000000e-01 0.00000000e+00 0.0
5.00000000e-01 6.25000000e-02 0.0
5.00000000e-01 1.25000000e-01 0.0
5.00000000e-01 1.87500000e-01 0.0
5.00000000e-01 2.50000000e-01 0.0
5.00000000e-01 3.12500000e-01 0.0
5.00000000e-01 3.75000000e-01 0.0
5.00000000e-01 4.37500000e-01 0.0
5.00000000e-01 5.00000000e-01 0.0
5.00000000e-01 5.62500000e-01 0.0
5.00000000e-01 6.25000000e-01 0.0
5.00000000e-01 6.87500000e-01 0.0
5.00000000e-01 7.50000000e-01 0.0
5.00000000e-01 8.12500000e-01 0.0
5.00000000e-01 8.75000000e-01 0.0
5.00000000e-01 9.37500000e-01 0.0
5.00000000e-01 1.00000000e+00 0.0
5.31250000e-01 3.12500000e-02 0.0
5.31250000e-01 9.37500000e-02 0.0
5.31250000e-01 1.56250000e-01 0.0
5.31250000e-01 2.18750000e-01 0.0
5.31250000e-01 2.81250000e-01 0.0
5.31250000e-01 3.43750000e-01 0.0
5.31250000e-01 4.06250000e-01 0.0
5.31250000e-01 4.68750000e-01 0.0
5.31250000e-01 5.31250000e-01 0.0
5.31250000e-01 5.93750000e-01 0.0
5.31250000e-01 6.56250000e-01 0.0
5.31250000e-01 7.18750000e-01 0.0
5.31250000e-01 7.81250000e-01 0.0
5.31250000e-01 8.43750000e-01 0.0
5.31250000e-01 9.06250000e-01 0.0
5.31250000e-01 9.68750000e-01 0.0
5.62500000e-01 3.12500000e-02 0.0
5.62500000e-01 9.37500000e-02 0.0
5.62500000e-01 1.56250000e-01 0.0
5.62500000e-01 2.18750000e-01 0.0
5.62500000e-01 2.81250000e-01 0.0
5.62500000e-01 3.43750000e-01 0.0
5.62500000e-01 4.06250000e-01 0.0
5.62500000e-01 4.68750000e-01 0.0
5.62500000e-01 5.31250000e-01 0.0
5.62500000e-01 5.93750000e-01 0.0
5.62500000e-01 6.56250000e-01 0.0
5.62500000e-01 7.18750000e-01 0.0
5.62500000e-01 7.81250000e-01 0.0
5.62500000e-01 8.43750000e-01 0.0
5.62500000e-01 9.06250000e-01 0.0
5.62500000e-01 9.68750000e-01 0.0
5.93750000e-01 0.00000000e+00 0.0
5.93750000e-01 6.25000000e-02 0.0
5.93750000e-01 1.25000000e-01 0.0
5.93750000e-01 1.87500000e-01 0.0
5.93750000e-01 2.50000000e-01 0.0
5.93750000e-01 3.12500000e-01 0.0
5.93750000e-01 3.75000000e-01 0.0
5.93750000e-01 4.37500000e-01 0.0
5.93750000e-01 5.00000000e-01 0.0
5.93750000e-01 5.62500000e-01 0.0
5.93750000e-01 6.25000000e-01 0.0
5.93750000e-01 6.87500000e-01 0.0
5.93750000e-01 7.50000000e-01 0.0
5.93750000e-01 8.12500000e-01 0.0
5.93750000e-01 8.75000000e-01 0.0
5.93750000e-01 9.37500000e-01 0.0
5.93750000e-01 1.00000000e+00 0.0
6.25000000e-01 0.00000000e+00 0.0
6.25000000e-01 6.25000000e-02 0.0
6.25000000e-01 1.25000000e-01 0.0
6.25000000e-01 1.87500000e-01 0.0
6.25000000e-01 2.50000000e-01 0.0
6.25000000e-01 3.12500000e-01 0.0
6.25000000e-01 3.75000000e-01 0.0
6.25000000e-01 4.37500000e-01 0.0
6.25000000e-01 5.00000000e-01 0.0
6.25000000e-01 5.62500000e-01 0.0
6.25000000e-01 6.25000000e-01 0.0
6.25000000e-01 6.87500000e-01 0.0
6.25000000e-01 7.50000000e-01 0.0
6.25000000e-01 8.12500000e-01 0.0
6.25000000e-01 8.75000000e-01 0.0
6.25000000e-01 9.37500000e-01 0.0
6.25000000e-01 1.00000000e+00 0.0
6.56250000e-01 3.12500000e-02 0.0
6.56250000e-01 9.37500000e-02 0.0
6.56250000e-01 1.56250000e-01 0.0
6.56250000e-01 2.18750000e-01 0.0
6.56250000e-01 2.81250000e-01 0.0
6.56250000e-01 3.43750000e-01 0.0
6.56250000e-01 4.06250000e-01 0.0
6.56250000e-01 4.68750000e-01 0.0
6.56250000e-01 5.31250000e-01 0.0
6.56250000e-01 5.93750000e-01 0.0
6.56250000e-01 6.56250000e-01 0.0
6.56250000e-01 7.18750000e-01 0.0
6.56250000e-01 7.81250000e-01 0.0
6.56250000e-01 8.43750000e-01 0.0
6.56250000e-01 9.06250000e-01 0.0
6.56250000e-01 9.68750000e-01 0.0
6.87500000e-01 3.12500000e-02 0.0
6.87500000e-01 9.37500000e-02 0.0
6.87500000e-01 1.56250000e-01 0.0
6.87500000e-01 2.18750000e-01 0.0
6.87500000e-01 2.81250000e-01 0.0
6.87500000e-01 3.43750000e-01 0.0
6.87500000e-01 4.06250000e-01 0.0
6.87500000e-01 4.68750000e-01 0.0
6.87500000e-01 5.31250000e-01 0.0
6.87500000e-01 5.93750000e-01 0.0
6.87500000e-01 6.56250000e-01 0.0
6.87500000e-01 7.18750000e-01 0.0
6.87500000e-01 7.81250000e-01 0.0
6.87500000e-01 8.43750000e-01 0.0
6.87500000e-01 9.06250000e-01 0.0
6.87500000e-01 9.68750000e-01 0.0
7.18750000e-01 0.00000000e+00 0.0
7.18750000e-01 6.25000000e-02 0.0
7.18750000e-01 1.25000000e-01 0.0
7.18750000e-01 1.87500000e-01 0.0
7.18750000e-01 2.50000000e-01 0.0
7.18750000e-01 3.12500000e-01 0.0
7.18750000e-01 3.75000000e-01 0.0
7.18750000e-01 4.37500000e-01 0.0
7.18750000e-01 5.00000000e-01 0.0
7.18750000e-01 5.62500000e-01 0.0
7.18750000e-01 6.25000000e-01 0.0
7.18750000e-01 6.87500000e-01 0.0
7.18750000e-01 7.50000000e-01 0.0
7.18750000e-01 8.12500000e-01 0.0
7.18750000e-01 8.75000000e-01 0.0
7.18750000e-01 9.37500000e-01 0.0
7.18750000e-01 1.00000000e+00 0.0
7.50000000e-01 0.00000000e+00 0.0
7.50000000e-01 6.25000000e-02 0.0
7.50000000e-01 1.25000000e-01 0.0
7.50000000e-01 1.87500000e-01 0.0
7.50000000e-01 2.50000000e-01 0.0
7.50000000e-01 3.12500000e-01 0.0
7.50000000e-01 3.75000000e-01 0.0
7.50000000e-01 4.37500000e-01 0.0
7.50000000e-01 5.00000000e-01 0.0
7.50000000e-01 5.62500000e-01 0.0
7.50000000e-01 6.25000000e-01 0.0
7.50000000e-01 6.87500000e-01 0.0
7.50000000e-01 7.50000000e-01 0.0
7.50000000e-01 8.12500000e-01 0.0
7.50000000e-01 8.75000000e-01 0.0
7.50000000e-01 9.37500000e-01 0.0
7.50000000e-01 1.00000000e+00 0.0
7.81250000e-01 3.12500000e-02 0.0
7.81250000e-01 9.37500000e-02 0.0
7.81250000e-01 1.56250000e-01 0.0
7.81250000e-01 2.18750000e-01 0.0
7.81250000e-01 2.81250000e-01 0.0
7.81250000e-01 3.43750000e-01 0.0
7.81250000e-01 4.06250000e-01 0.0
7.81250000e-01 4.68750000e-01 0.0
7.81250000e-01 5.31250000e-01 0.0
7.81250000e-01 5.93750000e-01 0.0
7.81250000e-01 6.56250000e-01 0.0
7.81250000e-01 7.18750000e-01 0.0
7.81250000e-01 7.81250000e-01 0.0
7.81250000e-01 8.43750000e-01 0.0
7.81250000e-01 9.06250000e-01 0.0
7.81250000e-01 9.68750000e-01 0.0
8.12500000e-01 3.12500000e-02 0.0
8.12500000e-01 9.37500000e-02 0.0
8.12500000e-01 1.56250000e-01 0.0
8.12500000e-01 2.18750000e-01 0.0
8.12500000e-01 2.81250000e-01 0.0
8.12500000e-01 3.43750000e-01 0.0
8.12500000e-01 4.06250000e-01 0.0
8.12500000e-01 4.68750000e-01 0.0
8.12500000e-01 5.31250000e-01 0.0
8.12500000e-01 5.93750000e-01 0.0
8.12500000e-01 6.56250000e-01 0.0
8.12500000e-01 7.18750000e-01 0.0
8.12500000e-01 7.81250000e-01 0.0
8.12500000e-01 8.43750000e-01 0.0
8.12500000e-01 9.06250000e-01 0.0
8.12500000e-01 9.68750000e-01 0.0
8.43750000e-01 0.00000000e+00 0.0
8.43750000e-01 6.25000000e-02 0.0
8.43750000e-01 1.25000000e-01 0.0
8.43750000e-01 1.87500000e-01 0.0
8.43750000e-01 2.50000000e-01 0.0
8.43750000e-01 3.12500000e-01 0.0
8.43750000e-01 3.75000000e-01 0.0
8.43750000e-01 4.37500000e-01 0.0
8.43750000e-01 5.00000000e-01 0.0
8.43750000e-01 5.62500000e-01 0.0
8.43750000e-01 6.25000000e-01 0.0
8.43750000e-01 6.87500000e-01 0.0
8.43750000e-01 7.50000000e-01 0.0
8.43750000e-01 8.12500000e-01 0.0
8.43750000e-01 8.75000000e-01 0.0
8.43750000e-01 9.37500000e-01 0.0
8.43750000e-01 1.00000000e+00 0.0
8.75000000e-01 0.00000000e+00 0.0
8.75000000e-01 6.25000000e-02 0.0
8.75000000e-01 1.25000000e-01 0.0
8.75000000e-01 1.87500000e-01 0.0
8.75000000e-01 2.50000000e-01 0.0
8.75000000e-01 3.12500000e-01 0.0
8.75000000e-01 3.75000000e-01 0.0
8.75000000e-01 4.37500000e-01 0.0
8.75000000e-01 5.00000000e-01 0.0
8.75000000e-01 5.62500000e-01 0.0
8.75000000e-01 6.25000000e-01 0.0
8.75000000e-01 6.87500000e-01 0.0
8.75000000e-01 7.50000000e-01 0.0
8.75000000e-01 8.12500000e-01 0.0
8.75000000e-01 8.75000000e-01 0.0
8.75000000e-01 9.37500000e-01 0.0
8.75000000e-01 1.00000000e+00 0.0
9.06250000e-01 3.12500000e-02 0.0
9.06250000e-01 9.37500000e-02 0.0
9.06250000e-01 1.56250000e-01 0.0
9.06250000e-01 2.18750000e-01 0.0
9.06250000e-01 2.81250000e-01 0.0
9.06250000e-01 3.43750000e-01 0.0
9.06250000e-01 4.06250000e-01 0.0
9.06250000e-01 4.68750000e-01 0.0
9.06250000e-01 5.31250000e-01 0.0
9.06250000e-01 5.93750000e-01 0.0
9.06250000e-01 6.56250000e-01 0.0
9.06250000e-01 7.18750000e-01 0.0
9.06250000e-01 7.81250000e-01 0.0
9.06250000e-01 8.43750000e-01 0.0
9.06250000e-01 9.06250000e-01 0.0
9.06250000e-01 9.68750000e-01 0.0
9.37500000e-01 3.12500000e-02 0.0
9.37500000e-01 9.37500000e-02 0.0
9.37500000e-01 1.56250000e-01 0.0
9.37500000e-01 2.18750000e-01 0.0
9.37500000e-01 2.81250000e-01 0.0
9.37500000e-01 3.43750000e-01 0.0
9.37500000e-01 4.06250000e-01 0.0
9.37500000e-01 4.68750000e-01 0.0
9.37500000e-01 5.31250000e-01 0.0
9.37500000e-01 5.93750000e-01 0.0
9.37500000e-01 6.56250000e-01 0.0
9.37500000e-01 7.18750000e-01 0.0
9.37500000e-01 7.81250000e-01 0.0
9.37500000e-01 8.43750000e-01 0.0
9.37500000e-01 9.06250000e-01 0.0
9.37500000e-01 9.68750000e-01 0.0
9.68750000e-01 0.00000000e+00 0.0
9.68750000e-01 6.25000000e-02 0.0
9.68750000e-01 1.25000000e-01 0.0
9.68750000e-01 1.87500000e-01 0.0
9.68750000e-01 2.50000000e-01 0.0
9.68750000e-01 3.12500000e-01 0.0
9.68750000e-01 3.75000000e-01 0.0
9.68750000e-01 4.37500000e-01 0.0
9.68750000e-01 5.00000000e-01 0.0
9.68750000e-01 5.62500000e-01 0.0
9.68750000e-01 6.25000000e-01 0.0
9.68750000e-01 6.87500000e-01 0.0
9.68750000e-01 7.50000000e-01 0.0
9.68750000e-01 8.12500000e-01 0.0
9.68750000e-01 8.75000000e-01 0.0
9.68750000e-01 9.37500000e-01 0.0
9.68750000e-01 1.00000000e+00 0.0
1.00000000e+00 0.00000000e+00 0.0
1.00000000e+00 6.25000000e-02 0.0
1.00000000e+00 1.25000000e-01 0.0
1.00000000e+00 1.87500000e-01 0.0
1.00000000e+00 2.50000000e-01 0.0
1.00000000e+00 3.12500000e-01 0.0
1.00000000e+00 3.75000000e-01 0.0
1.00000000e+00 4.37500000e-01 0.0
1.00000000e+00 5.00000000e-01 0.0
1.00000000e+00 5.62500000e-01 0.0
1.00000000e+00 6.25000000e-01 0.0
1.00000000e+00 6.87500000e-01 0.0
1.00000000e+00 7.50000000e-01 0.0
1.00000000e+00 8.12500000e-01 0.0
1.00000000e+00 8.75000000e-01 0.0
1.00000000e+00 9.37500000e-01 0.0
1.00000000e+00 1.00000000e+00 0.0
</DataArray>
</Points>
<Cells>
<DataArray type="Int32" Name="connectivity" format="ascii">
0 17 1 
0 49 33 17 
1 17 33 50 34 18 
1 18 2 
2 18 34 51 35 19 
2 19 3 
3 19 35 52 36 20 
3 20 4 
4 20 36 53 37 21 
4 21 5 
5 21 37 54 38 22 
5 22 6 
6 22 38 55 39 23 
6 23 7 
7 23 39 56 40 24 
7 24 8 
8 24 40 57 41 25 
8 25 9 
9 25 41 58 42 26 
9 26 10 
10 26 42 59 43 27 
10 27 11 
11 27 43 60 44 28 
11 28 12 
12 28 44 61 45 29 
12 29 13 
13 29 45 62 46 30 
13 30 14 
14 30 46 63 47 31 
14 31 15 
15 31 47 64 48 32 
15 32 16 
16 32 48 65 
66 83 67 50 33 49 
66 115 99 83 
67 83 99 116 100 84 
67 84 68 51 34 50 
68 84 100 117 101 85 
68 85 69 52 35 51 
69 85 101 118 102 86 
69 86 70 53 36 52 
70 86 102 119 103 87 
70 87 71 54 37 53 
71 87 103 120 104 88 
71 88 72 55 38 54 
72 88 104 121 105 89 
72 89 73 56 39 55 
73 89 105 122 106 90 
73 90 74 57 40 56 
74 90 106 123 107 91 
74 91 75 58 41 57 
75 91 107 124 108 92 
75 92 76 59 42 58 
76 92 108 125 109 93 
76 93 77 60 43 59 
77 93 109 126 110 94 
77 94 78 61 44 60 
78 94 110 127 111 95 
78 95 79 62 45 61 
79 95 111 128 112 96 
79 96 80 63 46 62 
80 96 112 129 113 97 
80 97 81 64 47 63 
81 97 113 130 114 98 
81 98 82 65 48 64 
82 98 114 131 
132 149 133 116 99 115 
132 181 165 149 
133 149 165 182 166 150 
133 150 134 117 100 116 
134 150 166 183 167 151 
134 151 135 118 101 117 
135 151 167 184 168 152 
135 152 136 119 102 118 
136 152 168 185 169 153 
136 153 137 120 103 119 
137 153 169 186 170 154 
137 154 138 121 104 120 
138 154 170 187 171 155 
138 155 139 122 105 121 
139 155 171 188 172 156 
139 156 140 123 106 122 
140 156 172 189 173 157 
140 157 141 124 107 123 
141 157 173 190 174 158 
141 158 142 125 108 124 
142 158 174 191 175 159 
142 159 143 126 109 125 
143 159 175 192 176 160 
143 160 144 127 110 126 
144 160 176 193 177 161 
144 161 145 128 111 127 
145 161 177 194 178 162 
145 162 146 129 112 128 
146 162 178 195 179 163 
146 163 147 130 113 129 
147 163 179 196 180 164 
147 164 148 131 114 130 
148 164 180 197 
198 215 199 182 165 181 
198 247 231 215 
199 215 231 248 232 216 
199 216 200 183 166 182 
200 216 232 249 233 217 
200 217 201 184 167 183 
201 217 233 250 234 218 
201 218 202 185 168 184 
202 218 234 251 235 219 
202 219 203 186 169 185 
203 219 235 252 236 220 
203 220 204 187 170 186 
204 220 236 253 237 221 
204 221 205 188 171 187 
205 221 237 254 238 222 
205 222 206 189 172 188 
206 222 238 255 239 223 
206 223 207 190 173 189 
207 223 239 256 240 224 
207 224 208 191 174 190 
208 224 240 257 241 225 
208 225 209 192 175 191 
209 225 241 258 242 226 
209 226 210 193 176 192 
210 226 242 259 243 227 
210 227 211 194 177 193 
211 227 243 260 244 228 
211 228 212 195 178 194 
212 228 244 261 245 229 
212 229 213 196 179 195 
213 229 245 262 246 230 
213 230 214 197 180 196 
214 230 246 263 
264 281 265 248 231 247 
264 313 297 281 
265 281 297 314 298 282 
265 282 266 249 232 248 
266 282 298 315 299 283 
266 283 267 250 233 249 
267 283 299 316 300 284 
267 284 268 251 234 250 
268 284 300 317 301 285 
268 285 269 252 235 251 
269 285 301 318 302 286 
269 286 270 253 236 252 
270 286 302 319 303 287 
270 287 271 254 237 253 
271 287 303 320 304 288 
271 288 272 255 238 254 
272 288 304 321 305 289 
272 289 273 256 239 255 
273 289 305 322 306 290 
273 290 274 257 240 256 
274 290 306 323 307 291 
274 291 275 258 241 257 
275 291 307 324 308 292 
275 292 276 259 242 258 
276 292 308 325 309 293 
276 293 277 260 243 259 
277 293 309 326 310 294 
277 294 278 261 244 260 
278 294 310 327 311 295 
278 295 279 262 245 261 
279 295 311 328 312 296 
279 296 280 263 246 262 
280 296 312 329 
330 347 331 314 297 313 
330 379 363 347 
331 347 363 380 364 348 
331 348 332 315 298 314 
332 348 364 381 365 349 
332 349 333 316 299 315 
333 349 365 382 366 350 
333 350 334 317 300 316 
334 350 366 383 367 351 
334 351 335 318 301 317 
335 351 367 384 368 352 
335 352 336 319 302 318 
336 352 368 385 369 353 
336 353 337 320 303 319 
337 353 369 386 370 354 
337 354 338 321 304 320 
338 354 370 387 371 355 
338 355 339 322 305 321 
339 355 371 388 372 356 
339 356 340 323 306 322 
340 356 372 389 373 357 
340 357 341 324 307 323 
341 357 373 390 374 358 
341 358 342 325 308 324 
342 358 374 391 375 359 
342 359 343 326 309 325 
343 359 375 392 376 360 
343 360 344 327 310 326 
344 360 376 393 377 361 
344 361 345 328 311 327 
345 361 377 394 378 362 
345 362 346 329 312 328 
346 362 378 395 
396 413 397 380 363 379 
396 445 429 413 
397 413 429 446 430 414 
397 414 398 381 364 380 
398 414 430 447 431 415 
398 415 399 382 365 381 
399 415 431 448 432 416 
399 416 400 383 366 382 
400 416 432 449 433 417 
400 417 401 384 367 383 
401 417 433 450 434 418 
401 418 402 385 368 384 
402 418 434 451 435 419 
402 419 403 386 369 385 
403 419 435 452 436 420 
403 420 404 387 370 386 
404 420 436 453 437 421 
404 421 405 388 371 387 
405 421 437 454 438 422 
405 422 406 389 372 388 
406 422 438 455 439 423 
406 423 407 390 373 389 
407 423 439 456 440 424 
407 424 408 391 374 390 
408 424 440 457 441 425 
408 425 409 392 375 391 
409 425 441 458 442 426 
409 426 410 393 376 392 
410 426 442 459 443 427 
410 427 411 394 377 393 
411 427 443 460 444 428 
411 428 412 395 378 394 
412 428 444 461 
462 479 463 446 429 445 
462 511 495 479 
463 479 495 512 496 480 
463 480 464 447 430 446 
464 480 496 513 497 481 
464 481 465 448 431 447 
465 481 497 514 498 482 
465 482 466 449 432 448 
466 482 498 515 499 483 
466 483 467 450 433 449 
467 483 499 516 500 484 
467 484 468 451 434 450 
468 484 500 517 501 485 
468 485 469 452 435 451 
469 485 501 518 502 486 
469 486 470 453 436 452 
470 486 502 519 503 487 
470 487 471 454 437 453 
471 487 503 520 504 488 
471 488 472 455 438 454 
472 488 504 521 505 489 
472 489 473 456 439 455 
473 489 505 522 506 490 
473 490 474 457 440 456 
474 490 506 523 507 491 
474 491 475 458 441 457 
475 491 507 524 508 492 
475 492 476 459 442 458 
476 492 508 525 509 493 
476 493 477 460 443 459 
477 493 509 526 510 494 
477 494 478 461 444 460 
478 494 510 527 
528 529 512 495 511 
529 530 513 496 512 
530 531 514 497 513 
531 532 515 498 514 
532 533 516 499 515 
533 534 517 500 516 
534 535 518 501 517 
535 536 519 502 518 
536 537 520 503 519 
537 538 521 504 520 
538 539 522 505 521 
539 540 523 506 522 
540 541 524 507 523 
541 542 525 508 524 
542 543 526 509 525 
543 544 527 510 526 
</DataArray>
<DataArray type="Int32" Name="offsets" format="ascii">
3 7 13 16 22 25 31 34 40 43 49 52 58 61 67 70 76 79 85 88 94 97 103 106 112 115 121 124 130 133 139 142 146 152 156 162 168 174 180 186 192 198 204 210 216 222 228 234 240 246 252 258 264 270 276 282 288 294 300 306 312 318 324 330 336 340 346 350 356 362 368 374 380 386 392 398 404 410 416 422 428 434 440 446 452 458 464 470 476 482 488 494 500 506 512 518 524 530 534 540 544 550 556 562 568 574 580 586 592 598 604 610 616 622 628 634 640 646 652 658 664 670 676 682 688 694 700 706 712 718 724 728 734 738 744 750 756 762 768 774 780 786 792 798 804 810 816 822 828 834 840 846 852 858 864 870 876 882 888 894 900 906 912 918 922 928 932 938 944 950 956 962 968 974 980 986 992 998 1004 1010 1016 1022 1028 1034 1040 1046 1052 1058 1064 1070 1076 1082 1088 1094 1100 1106 1112 1116 1122 1126 1132 1138 1144 1150 1156 1162 1168 1174 1180 1186 1192 1198 1204 1210 1216 1222 1228 1234 1240 1246 1252 1258 1264 1270 1276 1282 1288 1294 1300 1306 1310 1316 1320 1326 1332 1338 1344 1350 1356 1362 1368 1374 1380 1386 1392 1398 1404 1410 1416 1422 1428 1434 1440 1446 1452 1458 1464 1470 1476 1482 1488 1494 1500 1504 1509 1514 1519 1524 1529 1534 1539 1544 1549 1554 1559 1564 1569 1574 1579 1584 
</DataArray>
<DataArray type="UInt8" Name="types" format="ascii">
7 7 7 7 7 7 7 7 7 7 7 7 7 7 7 7 7 7 7 7 7 7 7 7 7 7 7 7 7 7 7 7 7 7 7 7 7 7 7 7 7 7 7 7 7 7 7 7 7 7 7 7 7 7 7 7 7 7 7 7 7 7 7 7 7 7 7 7 7 7 7 7 7 7 7 7 7 7 7 7 7 7 7 7 7 7 7 7 7 7 7 7 7 7 7 7 7 7 7 7 7 7 7 7 7 7 7 7 7 7 7 7 7 7 7 7 7 7 7 7 7 7 7 7 7 7 7 7 7 7 7 7 7 7 7 7 7 7 7 7 7 7 7 7 7 7 7 7 7 7 7 7 7 7 7 7 7 7 7 7 7 7 7 7 7 7 7 7 7 7 7 7 7 7 7 7 7 7 7 7 7 7 7 7 7 7 7 7 7 7 7 7 7 7 7 7 7 7 7 7 7 7 7 7 7 7 7 7 7 7 7 7 7 7 7 7 7 7 7 7 7 7 7 7 7 7 7 7 7 7 7 7 7 7 7 7 7 7 7 7 7 7 7 7 7 7 7 7 7 7 7 7 7 7 7 7 7 7 7 7 7 7 7 7 7 7 7 7 7 7 7 7 7 7 7 7 7 7 7 7 
</DataArray>
</Cells>
<PointData Vectors="displacement" Scalars="u_mag">
<DataArray type="Float64" Name="displacement" NumberOfComponents="3" format="ascii">
-8.31803431e-05 -6.52676864e-05 0.00000000e+00
-1.53193599e-05 -1.76995457e-05 0.00000000e+00
-2.53805439e-07 -2.19138154e-05 0.00000000e+00
-7.61383513e-08 -2.25591906e-05 0.00000000e+00
-1.03425543e-07 -2.27817821e-05 0.00000000e+00
-7.72195464e-08 -2.28826242e-05 0.00000000e+00
-4.85850566e-08 -2.29341422e-05 0.00000000e+00
-2.29097241e-08 -2.29602914e-05 0.00000000e+00
-9.67731428e-12 -2.29683965e-05 0.00000000e+00
2.28907090e-08 -2.29602888e-05 0.00000000e+00
4.85670249e-08 -2.29341373e-05 0.00000000e+00
7.72030502e-08 -2.28826173e-05 0.00000000e+00
1.03411008e-07 -2.27817738e-05 0.00000000e+00
7.61260498e-08 -2.25591814e-05 0.00000000e+00
2.53794876e-07 -2.19138058e-05 0.00000000e+00
1.53193360e-05 -1.76995378e-05 0.00000000e+00
8.31802584e-05 -6.52676132e-05 0.00000000e+00
-3.40147116e-05 -3.63304126e-04 0.00000000e+00
-6.09535620e-06 -3.42489499e-04 0.00000000e+00
-2.89972540e-06 -3.49148057e-04 0.00000000e+00
-1.67094651e-06 -3.52994721e-04 0.00000000e+00
-1.07581426e-06 -3.55167360e-04 0.00000000e+00
-6.68725836e-07 -3.56413790e-04 0.00000000e+00
-3.64694912e-07 -3.57109874e-04 0.00000000e+00
-1.15809233e-07 -3.57423879e-04 0.00000000e+00
1.15578568e-07 -3.57423859e-04 0.00000000e+00
3.64472262e-07 -3.57109816e-04 0.00000000e+00
6.68518360e-07 -3.56413699e-04 0.00000000e+00
1.07562763e-06 -3.55167241e-04 0.00000000e+00
1.67078453e-06 -3.52994580e-04 0.00000000e+00
2.89958930e-06 -3.49147898e-04 0.00000000e+00
6.09524298e-06 -3.42489318e-04 0.00000000e+00
3.40145912e-05 -3.63303864e-04 0.00000000e+00
-6.33733750e-05 -5.67669671e-04 0.00000000e+00
-1.19760525e-05 -5.76309760e-04 0.00000000e+00
-4.39448898e-06 -5.80713324e-04 0.00000000e+00
-2.57039189e-06 -5.86143417e-04 0.00000000e+00
-1.67516449e-06 -5.89623249e-04 0.00000000e+00
-1.05257448e-06 -5.91731415e-04 0.00000000e+00
-5.77985357e-07 -5.92929259e-04 0.00000000e+00
-1.84182345e-07 -5.93472785e-04 0.00000000e+00
1.83690878e-07 -5.93472750e-04 0.00000000e+00
5.77511760e-07 -5.92929157e-04 0.00000000e+00
1.05213444e-06 -5.91731254e-04 0.00000000e+00
1.67476996e-06 -5.89623038e-04 0.00000000e+00
2.57005020e-06 -5.86143167e-04 0.00000000e+00
4.39420154e-06 -5.80713039e-04 0.00000000e+00
1.19758081e-05 -5.76309428e-04 0.00000000e+00
6.33731179e-05 -5.67669258e-04 0.00000000e+00
-1.48026987e-04 -7.05566984e-04 0.00000000e+00
-2.96880742e-05 -7.15428442e-04 0.00000000e+00
-9.62045661e-06 -7.20603609e-04 0.00000000e+00
-4.15894848e-06 -7.26343070e-04 0.00000000e+00
-2.46370227e-06 -7.31121711e-04 0.00000000e+00
-1.56692489e-06 -7.34390843e-04 0.00000000e+00
-9.37854852e-07 -7.36413671e-04 0.00000000e+00
-4.39671251e-07 -7.37501701e-04 0.00000000e+00
-3.79990388e-10 -7.37844109e-04 0.00000000e+00
4.38925589e-07 -7.37501607e-04 0.00000000e+00
9.37150235e-07 -7.36413490e-04 0.00000000e+00
1.56628287e-06 -7.34390587e-04 0.00000000e+00
2.46313720e-06 -7.31121395e-04 0.00000000e+00
4.15846610e-06 -7.26342704e-04 0.00000000e+00
9.62004942e-06 -7.20603191e-04 0.00000000e+00
2.96877077e-05 -7.15427953e-04 0.00000000e+00
1.48026532e-04 -7.05566373e-04 0.00000000e+00
-1.03968354e-04 -8.17427641e-04 0.00000000e+00
-3.78398233e-05 -8.14478624e-04 0.00000000e+00
-1.16695950e-05 -8.20668380e-04 0.00000000e+00
-4.83413769e-06 -8.27024800e-04 0.00000000e+00
-2.68407956e-06 -8.32126125e-04 0.00000000e+00
-1.66163327e-06 -8.35738156e-04 0.00000000e+00
-9.88601473e-07 -8.38035438e-04 0.00000000e+00
-4.63302141e-07 -8.39290030e-04 0.00000000e+00
-5.48600433e-10 -8.39687451e-04 0.00000000e+00
4.62226501e-07 -8.39289908e-04 0.00000000e+00
9.87587338e-07 -8.38035204e-04 0.00000000e+00
1.66071200e-06 -8.35737828e-04 0.00000000e+00
2.68327085e-06 -8.32125722e-04 0.00000000e+00
4.83344784e-06 -8.27024333e-04 0.00000000e+00
1.16690122e-05 -8.20667851e-04 0.00000000e+00
3.78393006e-05 -8.14478012e-04 0.00000000e+00
1.03967745e-04 -8.17426883e-04 0.00000000e+00
-5.69435695e-05 -8.45076083e-04 0.00000000e+00
-2.08360685e-05 -8.73544369e-04 0.00000000e+00
-8.05891113e-06 -8.83362732e-04 0.00000000e+00
-3.89969570e-06 -8.89525933e-04 0.00000000e+00
-2.22331344e-06 -8.94116548e-04 0.00000000e+00
-1.33199951e-06 -8.97228005e-04 0.00000000e+00
-7.23152574e-07 -8.99116457e-04 0.00000000e+00
-2.30383794e-07 -9.00001503e-04 0.00000000e+00
2.28943588e-07 -9.00001425e-04 0.00000000e+00
7.21769654e-07 -8.99116233e-04 0.00000000e+00
1.33072236e-06 -8.97227653e-04 0.00000000e+00
2.22217563e-06 -8.94116094e-04 0.00000000e+00
3.89871326e-06 -8.89525398e-04 0.00000000e+00
8.05808061e-06 -8.83362126e-04 0.00000000e+00
2.08353580e-05 -8.73543686e-04 0.00000000e+00
5.69428933e-05 -8.45075292e-04 0.00000000e+00
-4.48297168e-05 -8.77022108e-04 0.00000000e+00
-1.99100631e-05 -9.13060173e-04 0.00000000e+00
-8.72662425e-06 -9.24520517e-04 0.00000000e+00
-4.09698312e-06 -9.31459802e-04 0.00000000e+00
-2.23441508e-06 -9.36353687e-04 0.00000000e+00
-1.29759798e-06 -9.39648069e-04 0.00000000e+00
-6.93501609e-07 -9.41654029e-04 0.00000000e+00
-2.19808295e-07 -9.42597659e-04 0.00000000e+00
2.17911545e-07 -9.42597563e-04 0.00000000e+00
6.91684090e-07 -9.41653750e-04 0.00000000e+00
1.29592551e-06 -9.39647634e-04 0.00000000e+00
2.23293101e-06 -9.36353131e-04 0.00000000e+00
4.09570558e-06 -9.31459152e-04 0.00000000e+00
8.72554583e-06 -9.24519788e-04 0.00000000e+00
1.99091448e-05 -9.13059355e-04 0.00000000e+00
4.48288662e-05 -8.77021178e-04 0.00000000e+00
-6.33509573e-05 -9.20864563e-04 0.00000000e+00
-2.37116420e-05 -9.28064742e-04 0.00000000e+00
-1.26340652e-05 -9.41774908e-04 0.00000000e+00
-5.93252915e-06 -9.52429414e-04 0.00000000e+00
-3.04536975e-06 -9.58976299e-04 0.00000000e+00
-1.70418059e-06 -9.63284037e-04 0.00000000e+00
-9.50734963e-07 -9.66034812e-04 0.00000000e+00
-4.32685191e-07 -9.67559035e-04 0.00000000e+00
-1.19879420e-09 -9.68046154e-04 0.00000000e+00
4.30340421e-07 -9.67558799e-04 0.00000000e+00
9.48538919e-07 -9.66034366e-04 0.00000000e+00
1.70220331e-06 -9.63283424e-04 0.00000000e+00
3.04364797e-06 -9.58975563e-04 0.00000000e+00
5.93106701e-06 -9.52428584e-04 0.00000000e+00
1.26328341e-05 -9.41773989e-04 0.00000000e+00
2.37105693e-05 -9.28063703e-04 0.00000000e+00
6.33498059e-05 -9.20863307e-04 0.00000000e+00
-2.70614763e-05 -9.37883072e-04 0.00000000e+00
-2.49343632e-05 -9.42365507e-04 0.00000000e+00
-1.11019540e-05 -9.57569176e-04 0.00000000e+00
-5.61884135e-06 -9.69244471e-04 0.00000000e+00
-2.93355635e-06 -9.76312561e-04 0.00000000e+00
-1.60465500e-06 -9.80877302e-04 0.00000000e+00
-8.75594881e-07 -9.83758673e-04 0.00000000e+00
-3.93351882e-07 -9.85348391e-04 0.00000000e+00
-1.53010925e-09 -9.85855809e-04 0.00000000e+00
3.90363616e-07 -9.85348094e-04 0.00000000e+00
8.72807976e-07 -9.83758116e-04 0.00000000e+00
1.60216011e-06 -9.80876547e-04 0.00000000e+00
2.93139534e-06 -9.76311667e-04 0.00000000e+00
5.61701187e-06 -9.69243475e-04 0.00000000e+00
1.11004163e-05 -9.57568083e-04 0.00000000e+00
2.49330208e-05 -9.42364274e-04 0.00000000e+00
2.70600420e-05 -9.37881581e-04 0.00000000e+00
-2.46519543e-05 -9.19595296e-04 0.00000000e+00
-1.37330533e-05 -9.58146829e-04 0.00000000e+00
-7.05203734e-06 -9.73598020e-04 0.00000000e+00
-3.78785065e-06 -9.82917381e-04 0.00000000e+00
-2.05026876e-06 -9.89012261e-04 0.00000000e+00
-1.12755235e-06 -9.92881552e-04 0.00000000e+00
-5.75686212e-07 -9.95180038e-04 0.00000000e+00
-1.78949816e-07 -9.96252775e-04 0.00000000e+00
1.75193658e-07 -9.96252585e-04 0.00000000e+00
5.72111447e-07 -9.95179495e-04 0.00000000e+00
1.12430187e-06 -9.92880727e-04 0.00000000e+00
2.04742260e-06 -9.89011243e-04 0.00000000e+00
3.78542517e-06 -9.82916236e-04 0.00000000e+00
7.04999983e-06 -9.73596772e-04 0.00000000e+00
1.37313263e-05 -9.58145457e-04 0.00000000e+00
2.46503697e-05 -9.19593729e-04 0.00000000e+00
-1.48356368e-05 -9.24713066e-04 0.00000000e+00
-1.04624129e-05 -9.63616411e-04 0.00000000e+00
-6.18380208e-06 -9.79778193e-04 0.00000000e+00
-3.28814217e-06 -9.89665615e-04 0.00000000e+00
-1.79095128e-06 -9.96085766e-04 0.00000000e+00
-9.76965334e-07 -1.00012759e-03 0.00000000e+00
-4.92679915e-07 -1.00251215e-03 0.00000000e+00
-1.52503113e-07 -1.00362073e-03 0.00000000e+00
1.47765004e-07 -1.00362049e-03 0.00000000e+00
4.88189540e-07 -1.00251146e-03 0.00000000e+00
9.72913074e-07 -1.00012656e-03 0.00000000e+00
1.78743276e-06 -9.96084514e-04 0.00000000e+00
3.28516104e-06 -9.89664236e-04 0.00000000e+00
6.18129868e-06 -9.79776712e-04 0.00000000e+00
1.04602872e-05 -9.63614785e-04 0.00000000e+00
1.48337099e-05 -9.24711223e-04 0.00000000e+00
-2.65663104e-05 -9.56837930e-04 0.00000000e+00
-7.70349388e-06 -9.58430739e-04 0.00000000e+00
-6.82059750e-06 -9.75023843e-04 0.00000000e+00
-3.77786970e-06 -9.88723964e-04 0.00000000e+00
-2.08412616e-06 -9.97133806e-04 0.00000000e+00
-1.15371068e-06 -1.00245472e-03 0.00000000e+00
-6.16199821e-07 -1.00572599e-03 0.00000000e+00
-2.71355428e-07 -1.00749840e-03 0.00000000e+00
-2.92808875e-09 -1.00805940e-03 0.00000000e+00
2.65665719e-07 -1.00749779e-03 0.00000000e+00
6.10967925e-07 -1.00572488e-03 0.00000000e+00
1.14911722e-06 -1.00245328e-03 0.00000000e+00
2.08021728e-06 -9.97132195e-04 0.00000000e+00
3.77458737e-06 -9.88722256e-04 0.00000000e+00
6.81783025e-06 -9.75022017e-04 0.00000000e+00
7.70108818e-06 -9.58428686e-04 0.00000000e+00
2.65637911e-05 -9.56835426e-04 0.00000000e+00
7.23856935e-07 -9.59600661e-04 0.00000000e+00
-1.02142008e-05 -9.60427912e-04 0.00000000e+00
-4.51965722e-06 -9.77077691e-04 0.00000000e+00
-2.78980194e-06 -9.91093961e-04 0.00000000e+00
-1.58596363e-06 -9.99769789e-04 0.00000000e+00
-8.72290415e-07 -1.00525900e-03 0.00000000e+00
-4.62635087e-07 -1.00862228e-03 0.00000000e+00
-2.03011574e-07 -1.01043880e-03 0.00000000e+00
-3.68591947e-09 -1.01101269e-03 0.00000000e+00
1.95869792e-07 -1.01043802e-03 0.00000000e+00
4.56124713e-07 -1.00862088e-03 0.00000000e+00
8.66644181e-07 -1.00525721e-03 0.00000000e+00
1.58121101e-06 -9.99767835e-04 0.00000000e+00
2.78582357e-06 -9.91091946e-04 0.00000000e+00
4.51628203e-06 -9.77075567e-04 0.00000000e+00
1.02112309e-05 -9.60425510e-04 0.00000000e+00
-7.26961412e-07 -9.59597715e-04 0.00000000e+00
-7.88703091e-06 -9.31577083e-04 0.00000000e+00
-4.41321629e-06 -9.69573565e-04 0.00000000e+00
-2.48832556e-06 -9.86385790e-04 0.00000000e+00
-1.52348028e-06 -9.97189259e-04 0.00000000e+00
-8.55665545e-07 -1.00428020e-03 0.00000000e+00
-4.68521353e-07 -1.00871724e-03 0.00000000e+00
-2.35699481e-07 -1.01130772e-03 0.00000000e+00
-7.47017781e-08 -1.01250214e-03 0.00000000e+00
6.57375970e-08 -1.01250163e-03 0.00000000e+00
2.27320994e-07 -1.01130629e-03 0.00000000e+00
4.61150142e-07 -1.00871518e-03 0.00000000e+00
8.49447249e-07 -1.00427787e-03 0.00000000e+00
1.51830793e-06 -9.97186885e-04 0.00000000e+00
2.48396660e-06 -9.86383388e-04 0.00000000e+00
4.40944376e-06 -9.69570963e-04 0.00000000e+00
7.88356695e-06 -9.31574031e-04 0.00000000e+00
-6.82284544e-07 -9.32277972e-04 0.00000000e+00
-1.70616877e-06 -9.70167181e-04 0.00000000e+00
-1.36689887e-06 -9.87046576e-04 0.00000000e+00
-7.25822874e-07 -9.97971579e-04 0.00000000e+00
-4.07230254e-07 -1.00515845e-03 0.00000000e+00
-2.21120572e-07 -1.00965524e-03 0.00000000e+00
-1.10831847e-07 -1.01227743e-03 0.00000000e+00
-3.72939052e-08 -1.01348507e-03 0.00000000e+00
2.60019909e-08 -1.01348440e-03 0.00000000e+00
1.00359129e-07 -1.01227557e-03 0.00000000e+00
2.12051849e-07 -1.00965263e-03 0.00000000e+00
3.99720900e-07 -1.00515559e-03 0.00000000e+00
7.19645367e-07 -9.97968792e-04 0.00000000e+00
1.36165129e-06 -9.87043853e-04 0.00000000e+00
1.70153907e-06 -9.70164225e-04 0.00000000e+00
6.78045153e-07 -9.32274453e-04 0.00000000e+00
-1.15821617e-05 -9.62502387e-04 0.00000000e+00
2.44652308e-06 -9.62341648e-04 0.00000000e+00
-5.06443558e-07 -9.78931631e-04 0.00000000e+00
-1.57217224e-07 -9.93254670e-04 0.00000000e+00
-6.46775018e-08 -1.00226573e-03 0.00000000e+00
-3.52271792e-08 -1.00799446e-03 0.00000000e+00
-1.94777631e-08 -1.01149679e-03 0.00000000e+00
-1.19136325e-08 -1.01338115e-03 0.00000000e+00
-7.00322368e-09 -1.01397471e-03 0.00000000e+00
-1.52685143e-09 -1.01337947e-03 0.00000000e+00
7.56693887e-09 -1.01149385e-03 0.00000000e+00
2.53264607e-08 -1.00799098e-03 0.00000000e+00
5.66575243e-08 -1.00226232e-03 0.00000000e+00
1.50545800e-07 -9.93251544e-04 0.00000000e+00
5.00586778e-07 -9.78928509e-04 0.00000000e+00
-2.45185099e-06 -9.62337985e-04 0.00000000e+00
1.15767162e-05 -9.62497586e-04 0.00000000e+00
1.37224577e-05 -9.62334817e-04 0.00000000e+00
-8.00630391e-07 -9.62235939e-04 0.00000000e+00
1.68664576e-06 -9.78843635e-04 0.00000000e+00
9.30601789e-07 -9.93152643e-04 0.00000000e+00
5.41175899e-07 -1.00214378e-03 0.00000000e+00
3.13798542e-07 -1.00785643e-03 0.00000000e+00
1.67635671e-07 -1.01134832e-03 0.00000000e+00
6.89316023e-08 -1.01322697e-03 0.00000000e+00
-8.85720063e-09 -1.01381856e-03 0.00000000e+00
-8.58731383e-08 -1.01322478e-03 0.00000000e+00
-1.82395532e-07 -1.01134452e-03 0.00000000e+00
-3.25738843e-07 -1.00785207e-03 0.00000000e+00
-5.50599940e-07 -1.00213975e-03 0.00000000e+00
-9.38429467e-07 -9.93149251e-04 0.00000000e+00
-1.69375859e-06 -9.78840366e-04 0.00000000e+00
7.93939868e-07 -9.62231923e-04 0.00000000e+00
-1.37293142e-05 -9.62329426e-04 0.00000000e+00
2.65969787e-06 -9.31862202e-04 0.00000000e+00
3.17836088e-06 -9.69887526e-04 0.00000000e+00
2.35081693e-06 -9.86766232e-04 0.00000000e+00
1.33761976e-06 -9.97637374e-04 0.00000000e+00
7.70413449e-07 -1.00476827e-03 0.00000000e+00
4.24321151e-07 -1.00922437e-03 0.00000000e+00
2.07496932e-07 -1.01182192e-03 0.00000000e+00
5.53831442e-08 -1.01301785e-03 0.00000000e+00
-7.69519371e-08 -1.01301640e-03 0.00000000e+00
-2.27028442e-07 -1.01181792e-03 0.00000000e+00
-4.40348663e-07 -1.00921904e-03 0.00000000e+00
-7.82825943e-07 -1.00476308e-03 0.00000000e+00
-1.34743030e-06 -9.97633246e-04 0.00000000e+00
-2.35949202e-06 -9.86762916e-04 0.00000000e+00
-3.18668798e-06 -9.69883836e-04 0.00000000e+00
-2.66768521e-06 -9.31857061e-04 0.00000000e+00
1.01280515e-05 -9.30820522e-04 0.00000000e+00
6.00409487e-06 -9.69008900e-04 0.00000000e+00
3.49719263e-06 -9.85795733e-04 0.00000000e+00
2.12796275e-06 -9.96495071e-04 0.00000000e+00
1.20718927e-06 -1.00348914e-03 0.00000000e+00
6.62861885e-07 -1.00785888e-03 0.00000000e+00
3.26751175e-07 -1.01040939e-03 0.00000000e+00
8.98078263e-08 -1.01158495e-03 0.00000000e+00
-1.17170702e-07 -1.01158304e-03 0.00000000e+00
-3.51281925e-07 -1.01040425e-03 0.00000000e+00
-6.82379505e-07 -1.00785209e-03 0.00000000e+00
-1.22155139e-06 -1.00348291e-03 0.00000000e+00
-2.13898338e-06 -9.96490824e-04 0.00000000e+00
-3.50739698e-06 -9.85792850e-04 0.00000000e+00
-6.01457756e-06 -9.69005511e-04 0.00000000e+00
-1.01382199e-05 -9.30814962e-04 0.00000000e+00
2.45894474e-06 -9.58019860e-04 0.00000000e+00
1.24181436e-05 -9.59394718e-04 0.00000000e+00
5.89774589e-06 -9.76109533e-04 0.00000000e+00
3.58470824e-06 -9.89988603e-04 0.00000000e+00
2.03562022e-06 -9.98503302e-04 0.00000000e+00
1.12274559e-06 -1.00387299e-03 0.00000000e+00
5.91218467e-07 -1.00716190e-03 0.00000000e+00
2.48315651e-07 -1.00893840e-03 0.00000000e+00
-1.71399544e-08 -1.00949855e-03 0.00000000e+00
-2.80680547e-07 -1.00893380e-03 0.00000000e+00
-6.18046869e-07 -1.00715392e-03 0.00000000e+00
-1.14241684e-06 -1.00386469e-03 0.00000000e+00
-2.04955963e-06 -9.98497356e-04 0.00000000e+00
-3.59642815e-06 -9.89985800e-04 0.00000000e+00
-5.91006528e-06 -9.76107549e-04 0.00000000e+00
-1.24311169e-05 -9.59390530e-04 0.00000000e+00
-2.47196447e-06 -9.58011874e-04 0.00000000e+00
3.07060768e-05 -9.54339429e-04 0.00000000e+00
1.02791047e-05 -9.56695055e-04 0.00000000e+00
8.27636688e-06 -9.73303853e-04 0.00000000e+00
4.55300249e-06 -9.86769327e-04 0.00000000e+00
2.50309210e-06 -9.94956230e-04 0.00000000e+00
1.38190420e-06 -1.00012358e-03 0.00000000e+00
7.30880621e-07 -1.00330246e-03 0.00000000e+00
3.08226870e-07 -1.00502536e-03 0.00000000e+00
-2.16338342e-08 -1.00556942e-03 0.00000000e+00
-3.49519984e-07 -1.00501984e-03 0.00000000e+00
-7.64127996e-07 -1.00329230e-03 0.00000000e+00
-1.40477012e-06 -1.00011348e-03 0.00000000e+00
-2.51788130e-06 -9.94950017e-04 0.00000000e+00
-4.56542636e-06 -9.86768574e-04 0.00000000e+00
-8.29186326e-06 -9.73304336e-04 0.00000000e+00
-1.02962580e-05 -9.56691673e-04 0.00000000e+00
-3.07235359e-05 -9.54331441e-04 0.00000000e+00
1.88341021e-05 -9.21673056e-04 0.00000000e+00
1.26750898e-05 -9.60911928e-04 0.00000000e+00
7.25947159e-06 -9.76792165e-04 0.00000000e+00
3.81973059e-06 -9.86331041e-04 0.00000000e+00
2.07004907e-06 -9.92506380e-04 0.00000000e+00
1.12284484e-06 -9.96401526e-04 0.00000000e+00
5.53720045e-07 -9.98704866e-04 0.00000000e+00
1.50775263e-07 -9.99775262e-04 0.00000000e+00
-2.03834133e-07 -9.99772042e-04 0.00000000e+00
-6.00254265e-07 -9.98694623e-04 0.00000000e+00
-1.15621539e-06 -9.96388536e-04 0.00000000e+00
-2.08995700e-06 -9.92496929e-04 0.00000000e+00
-3.83278124e-06 -9.86329431e-04 0.00000000e+00
-7.27522307e-06 -9.76796326e-04 0.00000000e+00
-1.26960410e-05 -9.60913534e-04 0.00000000e+00
-1.88559021e-05 -9.21667905e-04 0.00000000e+00
2.95511690e-05 -9.14928717e-04 0.00000000e+00
1.60906914e-05 -9.53551293e-04 0.00000000e+00
8.04815312e-06 -9.68478417e-04 0.00000000e+00
4.24551617e-06 -9.77344972e-04 0.00000000e+00
2.28634259e-06 -9.83154848e-04 0.00000000e+00
1.24889662e-06 -9.86860781e-04 0.00000000e+00
6.21410453e-07 -9.89068488e-04 0.00000000e+00
1.68046940e-07 -9.90098818e-04 0.00000000e+00
-2.34968371e-07 -9.90094928e-04 0.00000000e+00
-6.80499991e-07 -9.89057352e-04 0.00000000e+00
-1.28964650e-06 -9.86845374e-04 0.00000000e+00
-2.30594173e-06 -9.83144896e-04 0.00000000e+00
-4.25596576e-06 -9.77348055e-04 0.00000000e+00
-8.06619885e-06 -9.68489489e-04 0.00000000e+00
-1.61196209e-05 -9.53558546e-04 0.00000000e+00
-2.95810305e-05 -9.14924104e-04 0.00000000e+00
3.58074306e-05 -9.29686951e-04 0.00000000e+00
2.89964311e-05 -9.35196495e-04 0.00000000e+00
1.25737867e-05 -9.49733742e-04 0.00000000e+00
6.17520258e-06 -9.60662820e-04 0.00000000e+00
3.19677263e-06 -9.67285984e-04 0.00000000e+00
1.74523793e-06 -9.71615510e-04 0.00000000e+00
9.37603461e-07 -9.74366968e-04 0.00000000e+00
3.97001789e-07 -9.75884907e-04 0.00000000e+00
-4.15343268e-08 -9.76368653e-04 0.00000000e+00
-4.75952557e-07 -9.75878561e-04 0.00000000e+00
-9.99519441e-07 -9.74349676e-04 0.00000000e+00
-1.77810988e-06 -9.71598821e-04 0.00000000e+00
-3.20706259e-06 -9.67283993e-04 0.00000000e+00
-6.18701575e-06 -9.60681885e-04 0.00000000e+00
-1.26040925e-05 -9.49755420e-04 0.00000000e+00
-2.90369643e-05 -9.35201186e-04 0.00000000e+00
-3.58443903e-05 -9.29675947e-04 0.00000000e+00
7.48517988e-05 -9.07345073e-04 0.00000000e+00
2.79698439e-05 -9.16094198e-04 0.00000000e+00
1.37840129e-05 -9.28708161e-04 0.00000000e+00
6.32042667e-06 -9.38503208e-04 0.00000000e+00
3.23931774e-06 -9.44591965e-04 0.00000000e+00
1.81219589e-06 -9.48662741e-04 0.00000000e+00
9.90238858e-07 -9.51278542e-04 0.00000000e+00
4.16652458e-07 -9.52721431e-04 0.00000000e+00
-4.60861159e-08 -9.53185691e-04 0.00000000e+00
-5.22337972e-07 -9.52721281e-04 0.00000000e+00
-1.06750001e-06 -9.51260525e-04 0.00000000e+00
-1.84787850e-06 -9.48648435e-04 0.00000000e+00
-3.24184473e-06 -9.44595419e-04 0.00000000e+00
-6.31972715e-06 -9.38541560e-04 0.00000000e+00
-1.38327779e-05 -9.28749525e-04 0.00000000e+00
-2.80275121e-05 -9.16104605e-04 0.00000000e+00
-7.49014135e-05 -9.07339951e-04 0.00000000e+00
5.34898919e-05 -8.58956894e-04 0.00000000e+00
2.17394364e-05 -8.93609033e-04 0.00000000e+00
9.09918529e-06 -9.03513325e-04 0.00000000e+00
4.26475785e-06 -9.09799079e-04 0.00000000e+00
2.34723191e-06 -9.14402807e-04 0.00000000e+00
1.34695810e-06 -9.17524213e-04 0.00000000e+00
6.82311356e-07 -9.19422493e-04 0.00000000e+00
1.75200299e-07 -9.20302095e-04 0.00000000e+00
-2.94636905e-07 -9.20316260e-04 0.00000000e+00
-8.00968604e-07 -9.19413553e-04 0.00000000e+00
-1.41539258e-06 -9.17517525e-04 0.00000000e+00
-2.35710200e-06 -9.14411332e-04 0.00000000e+00
-4.24567921e-06 -9.09834233e-04 0.00000000e+00
-9.12514228e-06 -9.03589096e-04 0.00000000e+00
-2.18194468e-05 -8.93651490e-04 0.00000000e+00
-5.35591779e-05 -8.58969293e-04 0.00000000e+00
6.54914770e-05 -8.16445394e-04 0.00000000e+00
2.15310869e-05 -8.40378057e-04 0.00000000e+00
8.13775771e-06 -8.48549413e-04 0.00000000e+00
3.99836510e-06 -8.54138162e-04 0.00000000e+00
2.30254823e-06 -8.58434686e-04 0.00000000e+00
1.34718856e-06 -8.61349939e-04 0.00000000e+00
6.82229482e-07 -8.63113539e-04 0.00000000e+00
1.70465145e-07 -8.63918892e-04 0.00000000e+00
-3.08982690e-07 -8.63952427e-04 0.00000000e+00
-8.30108996e-07 -8.63116607e-04 0.00000000e+00
-1.43159711e-06 -8.61362064e-04 0.00000000e+00
-2.29941458e-06 -8.58464683e-04 0.00000000e+00
-3.95545376e-06 -8.54195858e-04 0.00000000e+00
-8.16567537e-06 -8.48669943e-04 0.00000000e+00
-2.16456807e-05 -8.40447347e-04 0.00000000e+00
-6.55955001e-05 -8.16466873e-04 0.00000000e+00
1.27034443e-04 -7.72110494e-04 0.00000000e+00
3.97219900e-05 -7.64339123e-04 0.00000000e+00
1.12845551e-05 -7.67800779e-04 0.00000000e+00
4.84440980e-06 -7.73672418e-04 0.00000000e+00
2.75087404e-06 -7.78477405e-04 0.00000000e+00
1.67751511e-06 -7.81826375e-04 0.00000000e+00
9.36980033e-07 -7.83912060e-04 0.00000000e+00
3.52231445e-07 -7.85037596e-04 0.00000000e+00
-3.56300373e-08 -7.85414449e-04 0.00000000e+00
-5.92193668e-07 -7.85079148e-04 0.00000000e+00
-1.08770679e-06 -7.83934294e-04 0.00000000e+00
-1.72012752e-06 -7.81838731e-04 0.00000000e+00
-2.69545062e-06 -7.78542027e-04 0.00000000e+00
-4.74275939e-06 -7.73816886e-04 0.00000000e+00
-1.14577460e-05 -7.67947563e-04 0.00000000e+00
-3.98887059e-05 -7.64412658e-04 0.00000000e+00
-1.27123040e-04 -7.72108871e-04 0.00000000e+00
1.69966684e-04 -6.26525902e-04 0.00000000e+00
2.82463114e-05 -6.48822470e-04 0.00000000e+00
9.13813346e-06 -6.51432226e-04 0.00000000e+00
4.20408706e-06 -6.57152887e-04 0.00000000e+00
2.48397696e-06 -6.61661111e-04 0.00000000e+00
1.52847829e-06 -6.64597639e-04 0.00000000e+00
8.37710524e-07 -6.66397789e-04 0.00000000e+00
2.51477933e-07 -6.67350389e-04 0.00000000e+00
2.75986522e-08 -6.67701891e-04 0.00000000e+00
-6.09437671e-07 -6.67459283e-04 0.00000000e+00
-1.01651551e-06 -6.66514615e-04 0.00000000e+00
-1.57417402e-06 -6.64749839e-04 0.00000000e+00
-2.40260340e-06 -6.61817850e-04 0.00000000e+00
-3.97364982e-06 -6.57373199e-04 0.00000000e+00
-9.45130537e-06 -6.51647311e-04 0.00000000e+00
-2.84638888e-05 -6.48960886e-04 0.00000000e+00
-1.70066954e-04 -6.26661092e-04 0.00000000e+00
5.15829337e-05 -4.54959856e-04 0.00000000e+00
9.93335752e-06 -4.47305795e-04 0.00000000e+00
3.72016215e-06 -4.51790613e-04 0.00000000e+00
2.31367233e-06 -4.56274110e-04 0.00000000e+00
1.43169205e-06 -4.58880967e-04 0.00000000e+00
8.50987696e-07 -4.60484180e-04 0.00000000e+00
3.43623037e-07 -4.61501558e-04 0.00000000e+00
9.73801373e-08 -4.61849849e-04 0.00000000e+00
-2.00251749e-07 -4.62117935e-04 0.00000000e+00
-6.41413842e-07 -4.61670088e-04 0.00000000e+00
-9.44633579e-07 -4.60882726e-04 0.00000000e+00
-1.43348229e-06 -4.59290708e-04 0.00000000e+00
-2.11630929e-06 -4.56485678e-04 0.00000000e+00
-3.76175723e-06 -4.52216592e-04 0.00000000e+00
-1.02513198e-05 -4.47511457e-04 0.00000000e+00
-5.18187507e-05 -4.55246822e-04 0.00000000e+00
4.14924876e-06 -1.32160963e-04 0.00000000e+00
3.08084851e-06 -1.27333112e-04 0.00000000e+00
1.24648263e-06 -1.29898168e-04 0.00000000e+00
6.75554888e-07 -1.30889921e-04 0.00000000e+00
3.99805797e-07 -1.31618940e-04 0.00000000e+00
2.45615094e-07 -1.32076515e-04 0.00000000e+00
9.76724194e-08 -1.32405156e-04 0.00000000e+00
6.98620071e-08 -1.32972179e-04 0.00000000e+00
-4.46520222e-08 -1.32625904e-04 0.00000000e+00
-1.43127440e-07 -1.32969890e-04 0.00000000e+00
-2.18608865e-07 -1.32792319e-04 0.00000000e+00
-3.71569944e-07 -1.32336959e-04 0.00000000e+00
-5.81154579e-07 -1.31460814e-04 0.00000000e+00
-1.19573877e-06 -1.29608936e-04 0.00000000e+00
-3.15292496e-06 -1.27899008e-04 0.00000000e+00
-4.38458095e-06 -1.32803237e-04 0.00000000e+00
2.43688484e-05 3.35208828e-06 0.00000000e+00
-1.62911490e-06 3.08093073e-05 0.00000000e+00
-5.25666304e-07 3.03848832e-05 0.00000000e+00
-1.28317358e-07 3.08397749e-05 0.00000000e+00
-1.41762840e-07 3.15216683e-05 0.00000000e+00
-8.66875630e-08 3.16660680e-05 0.00000000e+00
-4.34672242e-08 3.17614435e-05 0.00000000e+00
-7.23460765e-08 3.13718694e-05 0.00000000e+00
9.67024613e-08 3.14143985e-05 0.00000000e+00
-2.25725573e-08 3.13938357e-05 0.00000000e+00
9.76563405e-08 3.09340042e-05 0.00000000e+00
1.27402205e-07 3.08566588e-05 0.00000000e+00
1.66225404e-07 3.06979844e-05 0.00000000e+00
3.10204831e-07 3.08692063e-05 0.00000000e+00
4.31862522e-07 3.03999240e-05 0.00000000e+00
1.59499949e-06 2.99817893e-05 0.00000000e+00
-2.46168701e-05 2.71448285e-06 0.00000000e+00
1.66190343e-07 -2.22824722e-07 0.00000000e+00
-4.16050105e-09 -2.72752748e-07 0.00000000e+00
-1.14022554e-07 -7.12775266e-07 0.00000000e+00
-1.37242592e-07 -6.73180223e-07 0.00000000e+00
1.28951581e-09 -2.96257408e-07 0.00000000e+00
8.56283831e-10 -2.91686058e-07 0.00000000e+00
3.87254997e-09 -2.92318580e-07 0.00000000e+00
-1.22980372e-07 -7.17928956e-07 0.00000000e+00
-1.37865786e-07 -6.78456851e-07 0.00000000e+00
-1.17803425e-07 -7.27995324e-07 0.00000000e+00
-2.47319557e-07 -1.11319116e-06 0.00000000e+00
-2.45628718e-07 -1.11703198e-06 0.00000000e+00
-2.56548476e-07 -1.11579809e-06 0.00000000e+00
-1.38688269e-07 -6.82886176e-07 0.00000000e+00
-1.31656474e-07 -7.44622958e-07 0.00000000e+00
-3.75003927e-07 -1.21399835e-06 0.00000000e+00
-5.63572308e-07 -1.15307965e-06 0.00000000e+00
</DataArray>
<DataArray type="Float64" Name="u_mag" format="ascii">
1.05730035e-04
2.34084751e-05
2.19152851e-05
2.25593191e-05
2.27820169e-05
2.28827545e-05
2.29341937e-05
2.29603028e-05
2.29683965e-05
2.29603002e-05
2.29341887e-05
2.28827476e-05
2.27820085e-05
2.25593098e-05
2.19152754e-05
2.34084535e-05
1.05729924e-04
3.64892983e-04
3.42543735e-04
3.49160098e-04
3.52998676e-04
3.55168989e-04
3.56414418e-04
3.57110060e-04
3.57423898e-04
3.57423878e-04
3.57110002e-04
3.56414326e-04
3.55168870e-04
3.52998535e-04
3.49159938e-04
3.42543552e-04
3.64892710e-04
5.71196148e-04
5.76434181e-04
5.80729951e-04
5.86149053e-04
5.89625628e-04
5.91732351e-04
5.92929541e-04
5.93472813e-04
5.93472778e-04
5.92929438e-04
5.91732189e-04
5.89625417e-04
5.86148801e-04
5.80729664e-04
5.76433844e-04
5.71195710e-04
7.20927706e-04
7.16044159e-04
7.20667826e-04
7.26354977e-04
7.31125862e-04
7.34392515e-04
7.36414268e-04
7.37501832e-04
7.37844109e-04
7.37501737e-04
7.36414086e-04
7.34392258e-04
7.31125544e-04
7.26354608e-04
7.20667402e-04
7.16043655e-04
7.20927015e-04
8.24012965e-04
8.15357149e-04
8.20751344e-04
8.27038928e-04
8.32130454e-04
8.35739808e-04
8.38036021e-04
8.39290158e-04
8.39687451e-04
8.39290035e-04
8.38035786e-04
8.35739478e-04
8.32130048e-04
8.27038457e-04
8.20750807e-04
8.15356514e-04
8.24012136e-04
8.46992418e-04
8.73792828e-04
8.83399491e-04
8.89534481e-04
8.94119313e-04
8.97228993e-04
8.99116748e-04
9.00001532e-04
9.00001455e-04
8.99116522e-04
8.97228640e-04
8.94118856e-04
8.89533942e-04
8.83398878e-04
8.73792129e-04
8.46991583e-04
8.78167114e-04
9.13277225e-04
9.24561702e-04
9.31468812e-04
9.36356353e-04
9.39648965e-04
9.41654284e-04
9.42597685e-04
9.42597588e-04
9.41654004e-04
9.39648528e-04
9.36355793e-04
9.31468157e-04
9.24560963e-04
9.13276387e-04
8.78166143e-04
9.23041108e-04
9.28367603e-04
9.41859649e-04
9.52447890e-04
9.58981134e-04
9.63285545e-04
9.66035280e-04
9.67559132e-04
9.68046154e-04
9.67558895e-04
9.66034832e-04
9.63284928e-04
9.58980393e-04
9.52447051e-04
9.41858713e-04
9.28366537e-04
9.23039776e-04
9.38273404e-04
9.42695322e-04
9.57633532e-04
9.69260757e-04
9.76316969e-04
9.80878615e-04
9.83759062e-04
9.85348470e-04
9.85855809e-04
9.85348171e-04
9.83758503e-04
9.80877855e-04
9.76316068e-04
9.69259751e-04
9.57632421e-04
9.42694055e-04
9.38271872e-04
9.19925664e-04
9.58245242e-04
9.73623559e-04
9.82924680e-04
9.89014386e-04
9.92882192e-04
9.95180204e-04
9.96252791e-04
9.96252600e-04
9.95179659e-04
9.92881364e-04
9.89013362e-04
9.82923525e-04
9.73622297e-04
9.58243845e-04
9.19924055e-04
9.24832066e-04
9.63673207e-04
9.79797707e-04
9.89671077e-04
9.96087376e-04
1.00012807e-03
1.00251227e-03
1.00362074e-03
1.00362050e-03
1.00251158e-03
1.00012703e-03
9.96086118e-04
9.89669688e-04
9.79796211e-04
9.63671558e-04
9.24830193e-04
9.57206662e-04
9.58461697e-04
9.75047698e-04
9.88731181e-04
9.97135984e-04
1.00245538e-03
1.00572617e-03
1.00749843e-03
1.00805940e-03
1.00749783e-03
1.00572507e-03
1.00245394e-03
9.97134364e-04
9.88729461e-04
9.75045853e-04
9.58459626e-04
9.57204088e-04
9.59600934e-04
9.60482225e-04
9.77088144e-04
9.91097887e-04
9.99771047e-04
1.00525938e-03
1.00862239e-03
1.01043882e-03
1.01101269e-03
1.01043804e-03
1.00862098e-03
1.00525758e-03
9.99769085e-04
9.91095861e-04
9.77086004e-04
9.60479791e-04
9.59597990e-04
9.31610470e-04
9.69583609e-04
9.86388929e-04
9.97190423e-04
1.00428056e-03
1.00871735e-03
1.01130775e-03
1.01250215e-03
1.01250163e-03
1.01130632e-03
1.00871529e-03
1.00427823e-03
9.97188041e-04
9.86386516e-04
9.69580990e-04
9.31607388e-04
9.32278222e-04
9.70168681e-04
9.87047523e-04
9.97971842e-04
1.00515854e-03
1.00965527e-03
1.01227743e-03
1.01348507e-03
1.01348440e-03
1.01227558e-03
1.00965265e-03
1.00515567e-03
9.97969051e-04
9.87044793e-04
9.70165717e-04
9.32274699e-04
9.62572071e-04
9.62344758e-04
9.78931762e-04
9.93254682e-04
1.00226574e-03
1.00799446e-03
1.01149679e-03
1.01338115e-03
1.01397471e-03
1.01337947e-03
1.01149385e-03
1.00799098e-03
1.00226232e-03
9.93251556e-04
9.78928637e-04
9.62341108e-04
9.62567204e-04
9.62432650e-04
9.62236273e-04
9.78845089e-04
9.93153079e-04
1.00214393e-03
1.00785648e-03
1.01134834e-03
1.01322697e-03
1.01381856e-03
1.01322478e-03
1.01134454e-03
1.00785212e-03
1.00213990e-03
9.93149695e-04
9.78841832e-04
9.62232250e-04
9.62427358e-04
9.31865998e-04
9.69892734e-04
9.86769032e-04
9.97638270e-04
1.00476857e-03
1.00922446e-03
1.01182194e-03
1.01301785e-03
1.01301640e-03
1.01181795e-03
1.00921913e-03
1.00476339e-03
9.97634156e-04
9.86765737e-04
9.69889071e-04
9.31860879e-04
9.30875621e-04
9.69027501e-04
9.85801937e-04
9.96497343e-04
1.00348987e-03
1.00785910e-03
1.01040944e-03
1.01158495e-03
1.01158305e-03
1.01040432e-03
1.00785232e-03
1.00348366e-03
9.96493120e-04
9.85799089e-04
9.69024177e-04
9.30870172e-04
9.58023016e-04
9.59475084e-04
9.76127350e-04
9.89995093e-04
9.98505377e-04
1.00387361e-03
1.00716207e-03
1.00893843e-03
1.00949855e-03
1.00893384e-03
1.00715411e-03
1.00386534e-03
9.98499460e-04
9.89992332e-04
9.76125441e-04
9.59471064e-04
9.58015063e-04
9.54833289e-04
9.56750275e-04
9.73339041e-04
9.86779831e-04
9.94959378e-04
1.00012453e-03
1.00330272e-03
1.00502541e-03
1.00556942e-03
1.00501990e-03
1.00329259e-03
1.00011446e-03
9.94953203e-04
9.86779135e-04
9.73339655e-04
9.56747078e-04
9.54825867e-04
9.21865471e-04
9.60995521e-04
9.76819141e-04
9.86338437e-04
9.92508539e-04
9.96402159e-04
9.98705019e-04
9.99775274e-04
9.99772062e-04
9.98694803e-04
9.96389206e-04
9.92499129e-04
9.86336878e-04
9.76823419e-04
9.60997404e-04
9.21860766e-04
9.15405827e-04
9.53687044e-04
9.68511857e-04
9.77354193e-04
9.83157507e-04
9.86861571e-04
9.89068684e-04
9.90098832e-04
9.90094956e-04
9.89057586e-04
9.86846217e-04
9.83147600e-04
9.77357322e-04
9.68523078e-04
9.53694785e-04
9.15402181e-04
9.30376267e-04
9.35645915e-04
9.49816972e-04
9.60682667e-04
9.67291266e-04
9.71617078e-04
9.74367419e-04
9.75884988e-04
9.76368653e-04
9.75878677e-04
9.74350189e-04
9.71600448e-04
9.67289310e-04
9.60701808e-04
9.49839050e-04
9.35651860e-04
9.30366694e-04
9.10427303e-04
9.16521080e-04
9.28810447e-04
9.38524491e-04
9.44597519e-04
9.48664472e-04
9.51279058e-04
9.52721522e-04
9.53185692e-04
9.52721425e-04
9.51261124e-04
9.48650235e-04
9.44600982e-04
9.38562836e-04
9.28852532e-04
9.16533245e-04
9.10426279e-04
8.60620773e-04
8.93873429e-04
9.03559142e-04
9.09809074e-04
9.14405819e-04
9.17525202e-04
9.19422746e-04
9.20302112e-04
9.20316307e-04
9.19413902e-04
9.17518617e-04
9.14414370e-04
9.09844140e-04
9.03635171e-04
8.93917822e-04
8.60637457e-04
8.19067894e-04
8.40653833e-04
8.48588434e-04
8.54147521e-04
8.58437774e-04
8.61350993e-04
8.63113809e-04
8.63918908e-04
8.63952482e-04
8.63117006e-04
8.61363254e-04
8.58467763e-04
8.54205016e-04
8.48709226e-04
8.40726042e-04
8.19097628e-04
7.82491128e-04
7.65370584e-04
7.67883701e-04
7.73687585e-04
7.78482265e-04
7.81828175e-04
7.83912620e-04
7.85037675e-04
7.85414450e-04
7.85079371e-04
7.83935048e-04
7.81840623e-04
7.78546693e-04
7.73831420e-04
7.68033033e-04
7.65452690e-04
7.82503915e-04
6.49171303e-04
6.49437027e-04
6.51496317e-04
6.57166334e-04
6.61665774e-04
6.64599397e-04
6.66398316e-04
6.67350436e-04
6.67701891e-04
6.67459561e-04
6.66515390e-04
6.64751703e-04
6.61822211e-04
6.57385208e-04
6.51715847e-04
6.49584809e-04
6.49328032e-04
4.57874732e-04
4.47416077e-04
4.51805929e-04
4.56279976e-04
4.58883201e-04
4.60484967e-04
4.61501686e-04
4.61849859e-04
4.62117979e-04
4.61670533e-04
4.60883694e-04
4.59292945e-04
4.56490584e-04
4.52232238e-04
4.47628857e-04
4.58186482e-04
1.32226081e-04
1.27370377e-04
1.29904148e-04
1.30891664e-04
1.31619548e-04
1.32076743e-04
1.32405192e-04
1.32972197e-04
1.32625912e-04
1.32969967e-04
1.32792499e-04
1.32337480e-04
1.31462098e-04
1.29614452e-04
1.27937865e-04
1.32875597e-04
2.45983185e-05
3.08523489e-05
3.03894300e-05
3.08400419e-05
3.15219871e-05
3.16661867e-05
3.17614733e-05
3.13719528e-05
3.14145473e-05
3.13938438e-05
3.09341584e-05
3.08569218e-05
3.06984344e-05
3.08707649e-05
3.04029914e-05
3.00241854e-05
2.47660799e-05
2.77974975e-07
2.72784477e-07
7.21837740e-07
6.87027759e-07
2.96260214e-07
2.91687315e-07
2.92344230e-07
7.28385995e-07
6.92322666e-07
7.37465144e-07
1.14033395e-06
1.14371934e-06
1.14491157e-06
6.96827070e-07
7.56172452e-07
1.27059826e-06
1.28343540e-06
</DataArray>
</PointData>
</Piece>
</UnstructuredGrid>
</VTKFile>
