<?xml version="1.0"?>
<VTKFile type="UnstructuredGrid" version="0.1">
<UnstructuredGrid>
<Piece NumberOfPoints="17" NumberOfCells="16">
<Points>
<DataArray type="Float64" NumberOfComponents="3" format="ascii">
1.00000000e+00 0.00000000e+00 0.0
1.00000000e+00 6.25000000e-02 0.0
1.00000000e+00 1.25000000e-01 0.0
1.00000000e+00 1.87500000e-01 0.0
1.00000000e+00 2.50000000e-01 0.0
1.00000000e+00 3.12500000e-01 0.0
1.00000000e+00 3.75000000e-01 0.0
1.00000000e+00 4.37500000e-01 0.0
1.00000000e+00 5.00000000e-01 0.0
1.00000000e+00 5.62500000e-01 0.0
1.00000000e+00 6.25000000e-01 0.0
1.00000000e+00 6.87500000e-01 0.0
1.00000000e+00 7.50000000e-01 0.0
1.00000000e+00 8.12500000e-01 0.0
1.00000000e+00 8.75000000e-01 0.0
1.00000000e+00 9.37500000e-01 0.0
1.00000000e+00 1.00000000e+00 0.0
</DataArray>
</Points>
<Cells>
<DataArray type="Int32" Name="connectivity" format="ascii">
0 1 
1 2 
2 3 
3 4 
4 5 
5 6 
6 7 
7 8 
8 9 
9 10 
10 11 
11 12 
12 13 
13 14 
14 15 
15 16 
</DataArray>
<DataArray type="Int32" Name="offsets" format="ascii">
2 4 6 8 10 12 14 16 18 20 22 24 26 28 30 32 
</DataArray>
<DataArray type="UInt8" Name="types" format="ascii">
3 3 3 3 3 3 3 3 3 3 3 3 3 3 3 3 
</DataArray>
</Cells>
<CellData>
<DataArray type="Float64" Name="zone" format="ascii">
1.00000000e+00
1.00000000e+00
1.00000000e+00
1.00000000e+00
1.00000000e+00
1.00000000e+00
1.00000000e+00
1.00000000e+00
1.00000000e+00
1.00000000e+00
1.00000000e+00
1.00000000e+00
1.00000000e+00
1.00000000e+00
1.00000000e+00
1.00000000e+00
</DataArray>
<DataArray type="Float64" Name="friction_bound" format="ascii">
7.68863144e-14
7.59625641e-14
4.76678921e-11
7.89530984e-14
8.21486208e-14
8.23424443e-14
8.26604472e-14
4.84779699e-11
8.04731815e-14
4.86369894e-11
4.75206237e-11
4.78567146e-11
4.84927535e-11
8.46054693e-14
5.24274716e-11
7.79175162e-11
</DataArray>
<DataArray type="Float64" Name="slip_ratio" format="ascii">
7.47261728e+11
1.07316190e+12
1.48583204e+09
1.11083559e+12
1.08822547e+12
1.09056461e+12
1.06422664e+12
1.51226776e+09
1.08473346e+12
1.46593128e+09
1.50664271e+09
1.48422862e+09
1.48482495e+09
9.96306948e+11
1.20118504e+09
3.50022443e+08
</DataArray>
<DataArray type="Float64" Name="normal_stress" format="ascii">
-7.68862889e-02
-7.59625590e-02
-4.76678936e+01
-7.89531032e-02
-8.21486181e-02
-8.23424422e-02
-8.26604307e-02
-4.84779714e+01
-8.04731732e-02
-4.86369909e+01
-4.75206251e+01
-4.78567161e+01
-4.84927550e+01
-8.46054636e-02
-5.24274731e+01
-7.79175188e+01
</DataArray>
<DataArray type="Float64" Name="contact_pressure" format="ascii">
-7.68863144e-02
-7.59625641e-02
-4.76678921e+01
-7.89530984e-02
-8.21486208e-02
-8.23424443e-02
-8.26604472e-02
-4.84779699e+01
-8.04731815e-02
-4.86369894e+01
-4.75206237e+01
-4.78567146e+01
-4.84927535e+01
-8.46054693e-02
-5.24274716e+01
-7.79175162e+01
</DataArray>
<DataArray type="Float64" Name="friction_traction" format="ascii">
7.68863144e-14
7.59625641e-14
4.76678921e-11
7.89530984e-14
8.21486208e-14
8.23424443e-14
8.26604472e-14
4.84779699e-11
8.04731815e-14
4.86369894e-11
4.75206237e-11
4.78567146e-11
4.84927535e-11
8.46054693e-14
5.24274716e-11
7.79175162e-11
</DataArray>
<DataArray type="Float64" Name="normal_displacement" format="ascii">
1.58832095e-11
3.23336539e-12
-9.35337114e-10
-3.00452757e-12
1.70138114e-12
1.35598430e-12
1.03269423e-11
-9.76136451e-10
5.19250418e-12
-9.23052455e-10
-9.02289141e-10
-9.10584368e-10
-9.88344793e-10
3.52627027e-12
-9.68208385e-10
-1.65263751e-09
</DataArray>
<DataArray type="Float64" Name="tangential_displacement" format="ascii">
0.00000000e+00
0.00000000e+00
0.00000000e+00
0.00000000e+00
0.00000000e+00
0.00000000e+00
0.00000000e+00
0.00000000e+00
0.00000000e+00
0.00000000e+00
0.00000000e+00
0.00000000e+00
0.00000000e+00
0.00000000e+00
0.00000000e+00
0.00000000e+00
</DataArray>
</CellData>
</Piece>
</UnstructuredGrid>
</VTKFile>
